<svg xmlns="http://www.w3.org/2000/svg" viewBox="0 0 700.03 109.38"><title>ista</title><path d="M482.65,39.62V56.77H478.8V39.62h-5.61V36.15h15.16v3.47Z" style="fill:#3cb7b2"/><path d="M491.24,56.77V36.15H505.9v3.44H495v4.85H505v3.33H495v5.52h11.59v3.48Z" style="fill:#3cb7b2"/><path d="M525.29,53.79a9,9,0,0,1-7.36,3.5,10.08,10.08,0,0,1-4.14-.87c-2.34-1.11-5.5-3.92-5.5-10a11.56,11.56,0,0,1,1.9-6.78,9.26,9.26,0,0,1,7.89-4A8.13,8.13,0,0,1,525,38.89a12,12,0,0,1,1.43,3.1l-3.83,1a4.46,4.46,0,0,0-.52-1.63,4.33,4.33,0,0,0-4-2.19,5.37,5.37,0,0,0-2.4.55c-1.52.76-3.27,2.75-3.27,6.6a9.52,9.52,0,0,0,1.23,4.88,5.27,5.27,0,0,0,1.49,1.52,5.32,5.32,0,0,0,3,.93,4.6,4.6,0,0,0,3.8-1.87,9.33,9.33,0,0,0,.82-1.25c.12-.27.2-.5.38-1L526.84,51A11.49,11.49,0,0,1,525.29,53.79Z" style="fill:#3cb7b2"/><path d="M542.26,56.77l-9-14.46.24,14.46H529.7V36.15h3.48l9.14,14.54-.47-14.54h3.8V56.77Z" style="fill:#3cb7b2"/><path d="M566.29,54.34a9.09,9.09,0,0,1-3.5,2.37,10.47,10.47,0,0,1-3.59.58,8.7,8.7,0,0,1-7.07-3.18,11.09,11.09,0,0,1-2.75-7.62,12.53,12.53,0,0,1,.62-4,9.74,9.74,0,0,1,16.59-3.6,11,11,0,0,1,2.57,7.57A11.63,11.63,0,0,1,566.29,54.34ZM564,41.87a5.38,5.38,0,0,0-4.78-2.71,5.94,5.94,0,0,0-2.63.61c-1.46.79-3.27,2.72-3.27,6.57,0,.79,0,4.59,2.92,6.48a5.53,5.53,0,0,0,3,.88,5.65,5.65,0,0,0,2.37-.5c1.52-.7,3.5-2.45,3.59-6.33A9.09,9.09,0,0,0,564,41.87Z" style="fill:#3cb7b2"/><path d="M572.89,56.77V36.15h3.89V53.26H585v3.51Z" style="fill:#3cb7b2"/><path d="M603,54.34a9.09,9.09,0,0,1-3.5,2.37,10.47,10.47,0,0,1-3.59.58,8.7,8.7,0,0,1-7.07-3.18,11.09,11.09,0,0,1-2.75-7.62,12.53,12.53,0,0,1,.62-4,9.74,9.74,0,0,1,16.59-3.6,11,11,0,0,1,2.57,7.57A11.63,11.63,0,0,1,603,54.34Zm-2.25-12.47a5.38,5.38,0,0,0-4.78-2.71,5.94,5.94,0,0,0-2.63.61c-1.46.79-3.27,2.72-3.27,6.57,0,.79,0,4.59,2.92,6.48a5.53,5.53,0,0,0,3,.88,5.65,5.65,0,0,0,2.37-.5c1.52-.7,3.5-2.45,3.59-6.33A9.09,9.09,0,0,0,600.72,41.87Z" style="fill:#3cb7b2"/><path d="M623.88,56.77l0-1.76a7.7,7.7,0,0,1-5.66,2.28,9.2,9.2,0,0,1-6.6-2.6,11,11,0,0,1-3.07-8A12.16,12.16,0,0,1,611,39.21a9.61,9.61,0,0,1,7.56-3.59,9.82,9.82,0,0,1,3.39.62,9.08,9.08,0,0,1,5.28,5.46l-3.68,1.46c-.35-1-1.43-4.06-5-4.06a5.14,5.14,0,0,0-3.71,1.49c-1,1-2,2.77-2,6,0,.84,0,3.94,2.36,5.92a5.17,5.17,0,0,0,3.48,1.17,4.79,4.79,0,0,0,4.64-2.92,6.35,6.35,0,0,0,.44-1.84h-5.14V45.49h8.67V56.77Z" style="fill:#3cb7b2"/><path d="M631.42,56.77V36.15h3.79V56.77Z" style="fill:#3cb7b2"/><path d="M652.06,56.77l-1.19-4h-7.74l-1.2,4h-4.15l7-20.62h4.38l7,20.62Zm-5-16.91-2.86,9.49h5.7Z" style="fill:#3cb7b2"/><path d="M672.92,55.16a10.66,10.66,0,0,1-6.75,2.13,11,11,0,0,1-8-3.06,7.45,7.45,0,0,1-1-1.35l3.24-2.25c.9,1.35,2.6,3.1,6.39,3.1a6.94,6.94,0,0,0,1.52-.15c.44-.08,2.46-.64,2.46-2.57a2.08,2.08,0,0,0-.38-1.22c-.71-.94-2.57-1.2-3.6-1.43l-2.45-.56a12.57,12.57,0,0,1-3.12-1,5.17,5.17,0,0,1-3-4.79,6.14,6.14,0,0,1,.78-3c.94-1.58,3.19-3.39,7.36-3.39a9.77,9.77,0,0,1,8.33,4.18l-3.19,2.36a6,6,0,0,0-5.34-3.06c-.2,0-2.8,0-3.65,1.58a1.78,1.78,0,0,0-.23.93,1.68,1.68,0,0,0,.26.93c.49.85,1.63,1.11,3.53,1.52l2.13.47c2,.44,4.12,1,5.49,2.63a4.66,4.66,0,0,1,1.2,3.47A5.52,5.52,0,0,1,672.92,55.16Z" style="fill:#3cb7b2"/><path d="M474.83,89.86V69.25h14.66v3.44H478.62v4.85h10v3.33h-10v5.52h11.6v3.47Z" style="fill:#3cb7b2"/><path d="M513.67,89.86l-1.2-4h-7.74l-1.2,4h-4.14l7-20.61h4.38l7,20.61Zm-5-16.91-2.87,9.5h5.7Z" style="fill:#3cb7b2"/><path d="M531.8,89.86l-4.06-7.65h-3.47v7.65h-3.83V69.25h8.44a6.75,6.75,0,0,1,5.55,2.51,6.64,6.64,0,0,1,1.26,4,7.29,7.29,0,0,1-.38,2.31,5.71,5.71,0,0,1-3.68,3.35l4.58,8.41Zm-1.31-16.67a5.27,5.27,0,0,0-3.1-.61h-3.12V79h1.37c2.25,0,3.65,0,4.59-.5a3,3,0,0,0,1.55-2.74A2.91,2.91,0,0,0,530.49,73.19Z" style="fill:#3cb7b2"/><path d="M558.64,90.68c-.2-.06-.49-.11-.9-.26a13.22,13.22,0,0,1-3.51-2.28,10.22,10.22,0,0,1-6.51,2.25,9.15,9.15,0,0,1-7.07-3A11.58,11.58,0,0,1,538,79.56a11.73,11.73,0,0,1,2.46-7.51,9.23,9.23,0,0,1,7.36-3.33A9.69,9.69,0,0,1,554,70.79a10.8,10.8,0,0,1,3.65,8.44,15.57,15.57,0,0,1-1,5.35l-.47.9a1.6,1.6,0,0,0,.52.65,5.55,5.55,0,0,0,2.6.9,1.18,1.18,0,0,0,.41-.06Zm-8.12-17.46a5.61,5.61,0,0,0-2.8-.82A4.88,4.88,0,0,0,544,74.18a8.41,8.41,0,0,0-1.84,5.49,9,9,0,0,0,.35,2.48A5.83,5.83,0,0,0,548,86.71a4.64,4.64,0,0,0,3.62-1.58,8.41,8.41,0,0,0,1.9-5.6C553.53,78.62,553.47,75,550.52,73.22Z" style="fill:#3cb7b2"/><path d="M578.06,85.66c-.67,2.07-3,4.73-8.09,4.73a8.49,8.49,0,0,1-6.54-2.45,6.09,6.09,0,0,1-1.31-2.22,14.16,14.16,0,0,1-.32-4.21V69.25h3.88V81.92a6.68,6.68,0,0,0,.2,2.28c.38,1.23,1.49,2.45,4.24,2.45.5,0,3.33,0,4.18-2.33a7.43,7.43,0,0,0,.26-2.6V69.25h3.85V81.13A14.15,14.15,0,0,1,578.06,85.66Z" style="fill:#3cb7b2"/><path d="M583.08,89.86V69.25h3.8V89.86Z" style="fill:#3cb7b2"/><path d="M599.38,72.72V89.86h-3.85V72.72h-5.61V69.25h15.16v3.47Z" style="fill:#3cb7b2"/><path d="M608,89.86V69.25h14.66v3.44H611.76v4.85h10v3.33h-10v5.52h11.6v3.47Z" style="fill:#3cb7b2"/><path d="M635,72.72V89.86h-3.86V72.72h-5.61V69.25h15.16v3.47Z" style="fill:#3cb7b2"/><path d="M659.91,85.66c-.68,2.07-3,4.73-8.09,4.73a8.5,8.5,0,0,1-6.55-2.45A6.09,6.09,0,0,1,644,85.72a14.16,14.16,0,0,1-.32-4.21V69.25h3.88V81.92a6.37,6.37,0,0,0,.21,2.28c.38,1.23,1.49,2.45,4.23,2.45.5,0,3.33,0,4.18-2.33a7.43,7.43,0,0,0,.26-2.6V69.25h3.86V81.13A14.15,14.15,0,0,1,659.91,85.66Z" style="fill:#3cb7b2"/><path d="M676.32,89.86l-4.06-7.65h-3.48v7.65H665V69.25h8.44A6.76,6.76,0,0,1,679,71.76a6.68,6.68,0,0,1,1.25,4,7.29,7.29,0,0,1-.38,2.31,5.68,5.68,0,0,1-3.68,3.35l4.59,8.41ZM675,73.19a5.26,5.26,0,0,0-3.09-.61h-3.13V79h1.38c2.24,0,3.65,0,4.58-.5a3,3,0,0,0,1.55-2.74A2.91,2.91,0,0,0,675,73.19Z" style="fill:#3cb7b2"/><path d="M695.91,89.86l-1.19-4H687l-1.2,4h-4.15l7-20.61H693l7,20.61Zm-5-16.91L688,82.45h5.69Z" style="fill:#3cb7b2"/><rect y="19.08" width="19.56" height="87.85" style="fill:#000100"/><path d="M96.9,56.15h-31c-8.08,0-13.11-3.82-13.11-9.77,0-5.49,5-8.84,13.11-8.84h56.13v-16H63.56c-19.07,0-31.12,9.61-31.12,25.32,0,15.56,12.05,25.32,31.12,25.32H97.11c8.09,0,13.12,3.81,13.12,9.91,0,5.49-5,8.85-13.12,8.85H38.55v16H96.9c20.43,0,33.25-9.91,33.25-25.47S117.33,56.15,96.9,56.15Z" style="fill:#000100"/><path d="M279,92.75c-12.35,0-20.74-9-20.74-21.81V37.54h59.48v-16H258.21V.17H239.9V71.85c0,22.27,15.87,37.37,39,37.37s38.31-15,38.88-37H299.51C299,84.35,290.74,92.75,279,92.75Z" style="fill:#000100"/><path d="M350.18,72.22H423l0-.82h0V64.23a52.8,52.8,0,0,0-.59-7.85l0-.28h0c-3.5-22-21.31-37-45.58-37-27.3,0-46.82,18.76-46.82,45.15,0,25,19.52,42.7,46.82,42.7h35.08l.11-16H376.9C363.79,90.91,353.49,83.64,350.18,72.22ZM350,55.38c3.11-11.93,13.33-20,26.77-20s23.39,8.05,26.6,20c.07.23.12.47.18.7H349.85C349.9,55.86,350,55.62,350,55.38Z" style="fill:#000100"/><path d="M185.91,93.06C169.59,93.06,158,80.85,158,64.23S169.59,35.4,185.91,35.4c10.32,0,18.75,4.76,23.55,12.55l16.93-6.77c-7.6-13.6-22.21-22.1-40.48-22.1-27.3,0-46.82,18.76-46.82,45.15s19.52,45.15,46.82,45.15c24.32,0,42.15-15.06,45.6-37.16H212.88C209.83,84.78,199.52,93.06,185.91,93.06Z" style="fill:#000100"/><rect width="19.56" height="7.22" style="fill:#3cb7b2"/></svg>