<?xml version="1.0" encoding="utf-8"?>
<!-- Generator: Adobe Illustrator 24.0.1, SVG Export Plug-In . SVG Version: 6.00 Build 0)  -->
<svg version="1.1" id="Camada_1" xmlns="http://www.w3.org/2000/svg" xmlns:xlink="http://www.w3.org/1999/xlink" x="0px" y="0px"
	 viewBox="0 0 45.9 40" style="enable-background:new 0 0 45.9 40;" xml:space="preserve">
<style type="text/css">
	.st0{fill:#1A6F9F;}
</style>
<title>Ativo 3</title>
<g id="Camada_2_1_">
	<g id="Camada_1-2">
		<path class="st0" d="M5.9,0H5.8v11.7c0,9.3,0,11.7,0.1,11.8l0.1,0.1h1.8c0.6,0,1.2,0,1.8,0c0,0,0.1-3,0.1-6.7c0-5.9,0-6.7,0.1-6.8
			s0.2,0,0.5,1s0.3,1.2,1.5,5c0.4,1.2,0.7,2.3,0.7,2.4c0.1,0.4,0.5,1.8,0.6,2.1c0.1,0.3,0.2,0.6,0.4,0.8c0.5,1.1,1.6,1.9,2.8,2.1
			c0.4,0.1,0.8,0.1,1.1,0c1.4-0.2,2.5-1.2,2.9-2.5c0.1-0.3,0.1-0.9,0.1-7.8V5.8l-0.1-0.1c-0.6-0.1-1.2-0.1-1.8,0
			c-1.5,0-1.7,0-1.8,0.1s-0.1,0.5-0.1,6.7c0,5.8,0,6.6-0.1,6.7s-0.3-0.1-0.4-0.5s-0.2-0.7-2.4-7.3C9.3-1.2,9.8,0.1,9.6,0
			S6.1,0,5.9,0z"/>
		<path class="st0" d="M11.5,0.1c0.3,1,0.6,2,1,3c0.2,0.3,0.2,0.3,0.5,0.4s1.6,0.1,12,0.1c9.8,0,11.7,0,11.8,0.1s0.1,2.8,0.1,9.9
			c0,9.4,0,9.9,0.1,10s0.2,0.1,1.7,0.1s1.6,0,1.7-0.1s0.1-1.5,0.1-10c0-6.7,0-9.9,0.1-9.9c0.5-0.1,1-0.1,1.5-0.1
			c0.8,0.1,1.5,0,2.3-0.3c0.1,0,0.1-0.3,0.1-1.5c0-1.5,0-1.5-0.1-1.5C43.8,0,44.7,0,27.6,0C13.6,0,11.6,0,11.5,0.1z"/>
		<path class="st0" d="M25.5,5.8c-0.3,0.1-0.6,0.2-0.9,0.3C23.9,6.4,23.3,7,23,7.7c-0.5,0.9-0.4,0.4-0.5,6.7c0,3.9,0,5.8,0,6.1
			c0.2,1.6,1.5,2.9,3.1,3.1c0.3,0,1.8,0.1,4.5,0c3.6,0,4.1,0,4.1-0.1c0.1-1.1,0.1-2.3,0-3.5c-0.1-0.2-0.4-0.2-4.1-0.2
			c-1.3,0-2.6,0-3.8-0.1c-0.1-0.6-0.1-1.3-0.1-1.9c0-1.7,0-1.8,0.1-1.9s0.5-0.1,3.8-0.1c1.3,0.1,2.5,0.1,3.8-0.1
			c0.1-0.5,0.1-1.1,0-1.7v-1.6l-0.1-0.1c-1.3-0.1-2.5-0.1-3.8-0.1c-1.2,0.1-2.5,0-3.7-0.1c-0.1-1-0.1-1.9,0-2.9
			c1.3-0.1,2.6-0.1,3.9-0.1c1.3,0.1,2.7,0,4-0.1l0.2-0.1V7.6c0-1.6,0-1.7-0.1-1.8s-0.2-0.1-4.4-0.1C28.5,5.6,27,5.6,25.5,5.8z"/>
		<path class="st0" d="M5.5,25.5c-0.2,0.3-0.4,0.8-0.5,1l-0.8,1.9c-0.4,0.8-0.8,1.7-0.9,2l-0.6,1.3c-0.2,0.4-0.4,0.9-0.5,1.2
			l-0.3,0.8c-0.1,0.2-0.2,0.6-0.4,0.9l-0.3,0.7c0,0-0.2,0.5-0.4,0.9s-0.5,1-0.6,1.3C0.1,37.6,0,37.8,0,38c0,0.1,0.1,0.3,0.2,0.3
			l0.2,0.2h22.5c19.9,0,22.5,0,22.6-0.1c0.1-0.1,0.2-0.2,0.2-0.3c0.2-0.3,0.1-0.4-0.3-1.5c-0.2-0.5-0.5-1-0.5-1.2s-0.2-0.5-0.3-0.7
			l-0.3-0.7c-0.1-0.2-0.2-0.5-0.2-0.6c-0.3-0.6-0.7-1.5-0.8-1.9s-0.3-0.7-0.5-1c-0.1-0.2-0.2-0.5-0.3-0.7c0-0.1-0.1-0.2-0.1-0.3
			c-0.1-0.1-0.3-0.6-0.4-1s-0.4-0.9-0.5-1.1c-0.1-0.1-0.1-0.3-0.2-0.4c-0.1-0.2-0.1-0.4-0.2-0.5l-0.4-0.8c-0.3-0.8-0.4-0.9-0.5-0.9
			s-6.5,0-17.3,0H5.8L5.5,25.5z M38.5,26.9c0.4,0.1,0.5,0.3,1.1,1.7c0.2,0.4,0.3,0.8,0.4,0.9s0.7,1.5,1.3,2.9l1.3,3
			c0.1,0.1,0.1,0.3,0.2,0.4c0,0,0.1,0.2,0.2,0.5c0.4,0.9,0.5,1,0.2,1.4c-0.1,0.1-0.2,0.2-0.4,0.3c-0.3,0.1-39.7,0.1-40,0
			c-0.3-0.1-0.5-0.3-0.5-0.6c0-0.2,0-0.4,0.5-1.4c0.3-0.7,0.6-1.3,0.6-1.5s0.2-0.4,0.2-0.5s0.5-1.1,0.9-2.1s0.9-2.1,1-2.3l0.3-0.7
			l0.3-0.7l0.3-0.7c0.1-0.1,0.1-0.3,0.3-0.4C7.1,27,7.2,27,22.5,26.9h15.6C38.3,26.9,38.4,26.9,38.5,26.9L38.5,26.9z"/>
		<path class="st0" d="M7.1,30.5l-0.8,2.1C6.2,32.8,6,33.4,5.7,34S5.3,35,5.3,35.1S5.1,35.5,5,35.7l-0.2,0.5h1.1l0.4-1.1l0.8-2
			l1-2.7c0.4-1,0.6-1.7,0.6-1.8c-0.1,0-0.3,0-0.4,0H7.8L7.1,30.5z"/>
		<path class="st0" d="M10.6,28.8c-0.9,0.5-1.6,1.4-1.9,2.4C8.4,32,8.6,32.8,9,33c0.3,0.1,0.5,0.1,0.8,0.1h0.6l0.2,0.2
			c0.2,0.2,0.2,0.5,0,0.9s-0.3,0.5-1.9,0.6H7.5L7.4,35l-0.2,0.7C7.1,35.9,7,36.2,7,36.2s0.7,0,1.5,0h1.5l0.4-0.2
			c1-0.6,1.6-1.7,1.6-2.9c0-0.3-0.1-0.5-0.2-0.8c-0.2-0.5-0.4-0.5-1.2-0.5c-0.6,0-0.6,0-0.8-0.2c-0.1-0.1-0.2-0.2-0.2-0.4
			c0-0.4,0.2-0.7,0.5-1l0.2-0.2h1.1c1.1,0,1.1,0,1.1-0.1c0.1-0.4,0.3-1.2,0.3-1.3C12.1,28.6,11.3,28.6,10.6,28.8z"/>
		<path class="st0" d="M17.7,28.9c0,0.1-0.1,0.4-0.1,0.7l-0.1,0.5h0.6c0.5,0,0.7,0,0.7,0.1s0,0.3,0,1c0,0.5-0.1,1.3-0.2,1.7
			s-0.1,1.1-0.2,1.6s-0.1,1-0.1,1.2v0.5h1V36c0-0.3,0.2-3.1,0.3-4.6c0-0.4,0-0.8,0.1-1.2c0.1-0.1,0.2-0.1,0.7-0.1h0.6v-1.4h-3.6
			L17.7,28.9z"/>
		<path class="st0" d="M22.6,28.8c-0.3,0.3-0.5,0.7-0.6,1.1c0,0.2-0.1,1.5-0.1,2.8c-0.1,0.9-0.1,1.8,0,2.7c0.1,0.3,0.3,0.6,0.6,0.8
			c0.2,0.1,0.3,0.1,1.6,0.1h1.4v-0.6c0-0.2,0-0.5-0.1-0.7c0-0.1-0.1-0.1-1.2-0.1c-0.9,0-1.2,0-1.3-0.1c-0.1-0.6-0.1-1.1,0-1.7
			c0.1-0.1,0.3-0.1,1.2-0.1h1.1v-0.6c0-0.2,0-0.5-0.1-0.7v-0.1h-1c-0.8,0-1.1,0-1.1-0.1C23,31.3,23,31.1,23,30.8
			c0-0.5,0-0.6,0.1-0.6s0.3-0.1,1.2-0.1h1.1v-0.7c0-0.2,0-0.5-0.1-0.7c-0.4,0-0.8,0-1.2,0C22.9,28.7,22.8,28.7,22.6,28.8z"/>
		<path class="st0" d="M28.8,28.8l0.1,0.7c0.1,1.1,0.3,1.8,0.4,2.8s0.2,1.4,0.5,3.2l0.1,0.7h0.5c0.4,0,0.5,0,0.5-0.1s0-0.4-0.1-0.7
			c-0.1-0.5-0.4-2-0.5-2.9c0-0.2-0.1-0.6-0.2-0.9s-0.2-1.1-0.3-1.6s-0.2-1.1-0.2-1.2s0-0.1-0.5-0.1S28.7,28.7,28.8,28.8z"/>
		<path class="st0" d="M30.6,28.7c0,0.3,0.1,0.7,0.2,1c0.1,0.5,0.3,1.5,0.4,2.2c0.1,0.7,0.2,1.3,0.3,1.3c0.2,1,0.7,1.9,1.5,2.5
			c0.4,0.3,1,0.5,1.5,0.5c0.9-0.1,1.3-0.6,1.4-1.6c0-0.6-0.1-1.2-0.3-1.8c-0.1-0.3-0.4-1.3-0.7-2.3c-0.2-0.6-0.4-1.2-0.6-1.8
			c-0.1,0-0.3,0-0.5,0h-0.4l0.1,0.3c0,0.2,0.2,0.8,0.4,1.4s0.3,1.2,0.4,1.4s0.1,0.5,0.2,0.8c0.4,1.3,0.4,1.8-0.1,2.2
			c-0.2,0.2-0.2,0.2-0.6,0.2c-0.3,0-0.5-0.1-0.7-0.3c-0.2-0.2-0.4-0.4-0.5-0.7c-0.2-0.4-0.2-0.6-1-3.7c-0.1-0.4-0.2-0.9-0.2-1.1
			l-0.1-0.4H31C30.8,28.7,30.7,28.7,30.6,28.7z"/>
		<path class="st0" d="M35.2,28.7c0,0,0.1,0.3,0.2,0.6s0.2,0.8,0.3,1.1s0.2,0.8,0.3,0.9s0.2,0.8,0.4,1.4c0.9,2.8,1,3,1.8,3.4
			c0.2,0.1,0.3,0.1,1.6,0.1c0.5,0,0.9,0,1.4,0c0,0-0.1-0.3-0.3-0.7l-0.3-0.7h-1.2c-1,0-1.3,0-1.3-0.1c-0.2-0.4-0.3-0.8-0.5-1.3
			c-0.2-0.7-0.6-1.8-0.9-2.5s-0.5-1.5-0.6-1.8c-0.1-0.2-0.1-0.3-0.2-0.5C35.7,28.7,35.5,28.7,35.2,28.7z"/>
		<path class="st0" d="M15.7,28.8c-0.4,0.1-0.8,0.3-1.2,0.5c-0.6,0.7-1.1,1.5-1.3,2.3c-0.5,1.1-0.6,2.4-0.3,3.6c0.3,0.8,0.9,1,2.5,1
			h0.8l0.1-0.5c0-0.2,0.1-0.5,0.1-0.7v-0.2h-0.8c-0.4,0-0.7,0-1.1-0.1c-0.5-0.2-0.7-0.6-0.6-1.5c0-0.9,0.4-1.9,0.9-2.6
			c0.5-0.3,1.1-0.5,1.6-0.4h0.6l0.1-0.4c0-0.2,0.1-0.5,0.1-0.7v-0.3h-0.6C16.3,28.7,15.9,28.8,15.7,28.8z"/>
		<path class="st0" d="M26.3,33v0.8h2.2v-0.1c0-0.1-0.1-1-0.1-1.1c-0.3,0-0.7,0-1,0h-1.1L26.3,33z"/>
		<path class="st0" d="M45.7,38.9L45.6,39H12.7C0.5,39,0.3,39,0.2,38.9L0,38.8v0.4c0,0.5,0.1,0.7,0.3,0.8s45,0.1,45.3,0
			s0.3-0.2,0.3-0.8v-0.4L45.7,38.9z"/>
	</g>
</g>
</svg>
