<?xml version="1.0" encoding="utf-8"?>
<!-- Generator: Adobe Illustrator 16.0.0, SVG Export Plug-In . SVG Version: 6.00 Build 0)  -->
<!DOCTYPE svg PUBLIC "-//W3C//DTD SVG 1.1//EN" "http://www.w3.org/Graphics/SVG/1.1/DTD/svg11.dtd">
<svg version="1.1" id="Layer_1" xmlns="http://www.w3.org/2000/svg" xmlns:xlink="http://www.w3.org/1999/xlink" x="0px" y="0px"
	 width="2766.787px" height="2767.637px" viewBox="-962.54 -1086.178 2766.787 2767.637"
	 enable-background="new -962.54 -1086.178 2766.787 2767.637" xml:space="preserve">
<g>
	<path id="XMLID_172_" fill="#4FAD32" d="M1696.396-241.196c-34.815-82.375-77.276-161.354-127.384-235.234
		c-49.254-73.036-106.153-141.822-168.996-204.665s-131.628-119.742-204.664-168.996c-73.885-50.107-152.859-92.568-235.234-127.384
		c-170.698-72.187-351.581-108.705-538.411-108.705c-186.834,0-367.722,36.518-538.415,108.705
		c-82.375,34.815-161.354,77.276-235.235,127.384c-73.036,49.253-141.822,106.153-204.665,168.996S-676.35-549.466-725.603-476.43
		c-50.107,73.88-92.568,152.859-127.383,235.234c-73.036,170.694-109.554,352.43-109.554,539.26
		c0,186.835,36.518,367.717,108.705,538.416c34.815,82.375,77.276,161.35,127.383,235.234
		c49.253,73.035,106.153,141.821,168.996,204.664s131.629,119.742,204.665,168.996c73.88,50.103,152.859,92.568,235.235,127.384
		c170.694,72.187,351.581,108.7,538.411,108.7c186.835,0,367.717-36.514,538.411-108.7c82.38-34.815,161.354-77.281,235.239-127.384
		c73.031-49.254,141.821-106.153,204.664-168.996s119.742-131.629,168.996-204.664c50.103-73.885,92.563-152.859,127.383-235.234
		c72.188-170.699,108.7-351.581,108.7-538.416C1804.247,111.234,1768.583-70.502,1696.396-241.196 M421.707,1605.031
		c-721,0-1307.815-586.82-1307.815-1306.967c0-720.996,586.815-1307.811,1307.815-1307.811
		c720.143,0,1306.962,586.815,1306.962,1307.811C1728.669,1018.211,1141.849,1605.031,421.707,1605.031"/>
	<g>
		<g id="XMLID_141_">
			<path id="XMLID_170_" fill="#4FAD32" d="M-588.88,96.801h245.428v74.729H-498.01v91.719h144.369v73.88H-498.01v161.354h-90.87
				V96.801z"/>
			<path id="XMLID_168_" fill="#4FAD32" d="M-161.717,96.801v401.684h-90.866V96.801H-161.717z"/>
			<path id="XMLID_166_" fill="#4FAD32" d="M-58.111,405.071c24.626,12.735,61.993,24.627,101.059,24.627
				c41.612,0,63.691-16.985,63.691-43.311c0-24.627-18.683-39.065-67.088-56.899c-67.088-22.929-110.402-60.295-110.402-118.893
				c0-68.786,56.899-121.44,152.015-121.44c45.008,0,78.979,9.344,102.757,20.382l-20.382,73.036
				c-16.136-7.646-45.008-18.684-84.073-18.684c-39.065,0-58.598,17.834-58.598,39.065c0,25.476,22.929,37.362,74.734,56.895
				c71.333,26.33,104.455,62.848,104.455,119.747c0,67.088-51.805,124.836-162.204,124.836c-45.857,0-90.87-11.891-113.799-24.631
				L-58.111,405.071z"/>
			<path id="XMLID_163_" fill="#4FAD32" d="M360.558,173.228H252.707V96.801h309.119v76.428H452.277v325.256h-90.87V173.228H360.558
				z"/>
			<path id="XMLID_142_" fill="#4FAD32" d="M682.418,395.727l-28.872,102.757h-94.267L682.418,96.801H801.31l124.837,401.684
				h-97.663l-30.57-102.757H682.418z M784.325,327.79l-24.627-84.922c-6.792-23.782-14.438-53.503-20.381-77.281h-0.85
				c-5.943,23.778-11.891,54.348-18.684,77.281l-23.777,84.922H784.325z"/>
		</g>
		<path id="XMLID_98_" fill="#4FAD32" d="M1084.105,99.347L1084.105,99.347c-4.25-1.698-8.495-1.698-11.892,1.698l-102.757,75.579
			c-5.094,3.401-5.943,8.495-2.547,15.287l2.547,3.396c3.396,5.099,10.193,5.948,16.137,2.547l79.828-59.442v347.335
			c0,6.793,5.094,11.887,11.887,11.887h2.547c6.797,0,11.892-5.094,11.892-11.887V111.234
			C1090.897,106.14,1088.35,101.046,1084.105,99.347z"/>
		<path id="XMLID_99_" fill="#4FAD32" d="M1429.738,105.291c-2.548-3.396-5.943-5.094-10.188-5.094h-238.636
			c-6.792,0-11.887,5.094-11.887,11.886v1.698c0,6.797,5.095,11.891,11.887,11.891h217.405l-156.261,355.826
			c-3.396,9.344,1.698,13.589,5.948,15.287l2.547,0.849c0.85,0.85,3.396,1.698,5.095,1.698c2.547,0,6.792-0.849,10.188-6.792
			l164.75-375.358C1432.285,112.932,1432.285,108.687,1429.738,105.291z"/>
	</g>
</g>
</svg>
