<svg id="Layer_1" data-name="Layer 1" xmlns="http://www.w3.org/2000/svg" viewBox="0 0 130.45 55"><defs><style>.cls-1{fill:#ce0037}</style></defs><title>Yorn_logo</title><path class="cls-1" d="M95.66 36.88a11.32 11.32 0 0 0 4.59-9.11v-1a11.32 11.32 0 0 0-11.31-11.38H75.11a.67.67 0 0 0-.66.67v30.87a.67.67 0 0 0 .67.67h7.1a.67.67 0 0 0 .67-.67v-7.17a.67.67 0 0 1 .67-.67h3.29a.66.66 0 0 1 .58.33l4.52 7.83a.74.74 0 0 0 .58.33h8.19a.61.61 0 0 0 .58-1zm-8.78-6.3h-3.32a.67.67 0 0 1-.67-.67v-5.33a.67.67 0 0 1 .66-.67h3.39a3.33 3.33 0 0 1 3.33 3.43 3.42 3.42 0 0 1-3.39 3.23zm-28.2-15.73h-3.87a.75.75 0 0 0-.56.36l-9.89 17.17a.71.71 0 0 0-.1.35v3.51A11.51 11.51 0 0 0 55.5 48h3.18a11.51 11.51 0 0 0 11.24-11.76v-9.63a11.51 11.51 0 0 0-11.24-11.76zM61.49 35a4.4 4.4 0 1 1-8.8 0v-6.92a4.4 4.4 0 1 1 8.8 0V35zm69.07-19.56h-7.1a.67.67 0 0 0-.67.67v14.65l-8.65-15a.74.74 0 0 0-.58-.33h-7.34a.67.67 0 0 0-.67.67v30.83a.67.67 0 0 0 .67.67h7.1a.67.67 0 0 0 .67-.67V32.38l8.58 14.88a.74.74 0 0 0 .58.33h7.41a.67.67 0 0 0 .67-.67V16.1a.67.67 0 0 0-.67-.67zM9.14.5a1.07 1.07 0 0 0-.83-.5H1.39a.53.53 0 0 0-.5.87l24 41.66a1.07 1.07 0 0 1 0 1l-2.23 3.85a.64.64 0 0 1-.5.29h-3a.53.53 0 0 1-.5-.87l1.81-3.13a1.07 1.07 0 0 0 0-1l-3.46-6a.53.53 0 0 0-1 0L6 54.13a.53.53 0 0 0 .5.87h19.89a.64.64 0 0 0 .5-.29l6-10.43a2.79 2.79 0 0 0 0-2.52zM56.79 0H37.5a.64.64 0 0 0-.5.29l-5.1 8.84a.64.64 0 0 0 0 .58l3.21 5.56a1 1 0 0 0 .9.53.92.92 0 0 0 .81-.47l4.43-7.68a.64.64 0 0 1 .5-.29h2.94a.53.53 0 0 1 .5.87l-8.81 15.3a.53.53 0 0 1-1 0L22.13.53a1.07 1.07 0 0 0-.85-.53h-6.92a.53.53 0 0 0-.5.87l20.65 35.9a1.41 1.41 0 0 0 2.68 0l20.44-35.3A.89.89 0 0 0 56.79 0z" transform="translate(-.77)"/></svg>