<?xml version="1.0" encoding="utf-8"?>
<!-- Generator: Adobe Illustrator 24.0.1, SVG Export Plug-In . SVG Version: 6.00 Build 0)  -->
<svg version="1.1" id="Camada_1" xmlns="http://www.w3.org/2000/svg" xmlns:xlink="http://www.w3.org/1999/xlink" x="0px" y="0px"
	 viewBox="0 0 40 40" style="enable-background:new 0 0 40 40;" xml:space="preserve">
<style type="text/css">
	.st0{fill:#0063A2;}
	.st1{fill:#0063A2;fill-opacity:0.5;}
</style>
<title>Ativo 4</title>
<g id="Camada_2_1_">
	<g id="Camada_1-2">
		<path class="st0" d="M20,0L0,20l20,20l20-20L20,0z M20,32.2c-6.7,0-12.2-5.5-12.2-12.2S13.3,7.8,20,7.8S32.2,13.3,32.2,20l0,0l0,0
			C32.2,26.7,26.7,32.2,20,32.2z"/>
		<path class="st1" d="M29.2,17.1c0,0,0,0.1,0,0.1c-0.1,0.4-0.3,1.3-0.6,1.3c-0.1,0-0.2-0.1-0.4-0.4v0c-0.5-1-1.2-2.1-1-2.3
			S28,16.1,29.2,17.1z M26,19.5c0.1-0.8,0.1-1.6,0-2.5c0-0.5-0.1-1.2,0.1-1.2l0,0c0.2,0,0.6,0.6,0.8,0.9c0.3,0.4,0.5,0.9,0.8,1.3
			c0.1,0.1,0.2,0.3,0.2,0.4c0.4,0.6,0.3,1.4-0.2,2l0,0c-0.8,0.9-1.2,1.4-1.5,1.4h-0.1C25.8,21.6,25.9,20.7,26,19.5L26,19.5z
			 M17.9,26.1c1.2-0.1,2.4-0.4,3.6-0.8c0.6-0.2,1.2-0.4,1.9-0.5c0.2,0,0.3,0,0.4,0.1c0.2,0.2-0.1,0.9-1,2c-0.3,0.4-0.6,0.7-1,1.1
			c-1.2,1.1-2,0.9-3.1-0.1c-0.3-0.3-0.6-0.5-0.9-0.8L17.6,27c-0.2-0.2-0.4-0.5-0.4-0.6S17.5,26.2,17.9,26.1L17.9,26.1z M23.2,23.6
			c-0.1,0.6-0.7,1.1-1.9,1.5c-1.2,0.4-2.4,0.7-3.7,0.7c-0.9,0-1.3-0.4-1.9-1.4c-0.6-1-1.1-2-1.5-3.1c-0.6-2.2-0.6-3.5,0.1-4
			c0.2-0.1,0.4-0.2,0.6-0.2c1.3,0,3.4,1.6,5,2.8c0.3,0.2,0.5,0.4,0.9,0.6C21.9,21.6,23.3,22.6,23.2,23.6L23.2,23.6z M11.6,21.3
			c0.3-2.3,0.6-2.8,0.9-2.8l0,0c0.2,0,0.6,0.4,1.1,2c0.4,1.5,1,2.8,1.8,4.1c0.3,0.5,0.6,0.9,0.5,1s-0.2,0.1-0.6,0
			c-0.5-0.1-1-0.2-1.5-0.3c-0.9-1-1.6-2.1-2.2-3.3V21.3z M14.7,26.3l-0.5-0.5c0.4,0.1,0.8,0.2,1.2,0.2c0.7,0,1.4,0.4,1.8,0.9
			l0.2,0.2c0.3,0.3,0.6,0.6,1,0.9c0.7,0.6,0.7,0.7,0.6,0.7s-0.1,0.1-0.9-0.2l0,0C16.9,28.1,15.7,27.3,14.7,26.3L14.7,26.3z
			 M24.8,13.6c-0.1,0.1-0.7-0.3-1.2-0.6c-1-0.7-2.1-1.2-3.3-1.6c-0.2-0.1-0.3-0.1-0.3-0.2s0.1-0.2,0.3-0.2c0.6-0.1,1.3-0.2,1.9-0.2
			h0.4c0.3,0,0.6,0.1,0.8,0.4c0.4,0.5,0.7,1,1,1.5C24.9,13.3,24.9,13.5,24.8,13.6L24.8,13.6z M15.9,15.1c0.2-0.7,1.2-1.1,2.9-1.2
			c0.4,0,0.8-0.1,1.1-0.1c1,0,1.9,0.1,2.8,0.3c1.8,0.4,2.7,0.9,2.9,2.9c0.1,0.7,0.1,1.5,0,2.2c-0.1,1.4-0.5,2.2-1.1,2.5
			c-1,0.5-2.6-0.7-4-1.7L20,19.7C17,17.5,15.6,16,15.9,15.1L15.9,15.1z M24.1,13.9c-0.1,0.1-0.7,0-1.1-0.1c-1-0.2-2.1-0.3-3.1-0.4
			h-1.2c-2,0.1-2.3-0.2-2.4-0.4c-0.1-0.3,0.6-0.9,1.8-1.4c0.6-0.3,1.3-0.4,1.9-0.2c1.2,0.3,2.4,0.8,3.4,1.6
			C24,13.6,24.1,13.8,24.1,13.9L24.1,13.9z M17.8,11.5l-0.8,0.4c-0.9,0.4-1.9,0.9-2.1,0.7c-0.1-0.1-0.1-0.3,0.3-0.8
			c0.3-0.5,0.9-0.7,1.4-0.6h1c0.2,0,0.3,0.1,0.3,0.2S17.9,11.4,17.8,11.5L17.8,11.5z M11.3,21.3c-0.4-1-0.6-2-0.8-3
			c-0.1-0.4,0-0.8,0.2-1.1c0.4-0.5,0.6-0.7,0.7-0.7h0.1c0.3,0.1,0.1,1.7-0.1,2.9C11.4,20,11.3,20.7,11.3,21.3L11.3,21.3z M13.2,25.3
			L13.2,25.3c-1-0.3-1.6-1.1-1.6-2c0-0.1,0-0.3,0-0.4C12.1,23.7,12.6,24.5,13.2,25.3L13.2,25.3z M29.4,17.3c0.5,0.5,0.9,1,1.3,1.6
			l0,0v-0.1c0-0.1,0-0.2,0-0.2l0,0c-0.3-0.6-0.7-1.1-1.2-1.6c0.1-0.7,0.1-1.3,0.1-2l0,0c0-0.1-0.1-0.2-0.1-0.3l-0.1-0.1l0,0
			c0.1,0.7,0.1,1.5,0,2.2c-0.5-0.5-1.1-0.9-1.7-1.2c-1.2-0.7-2.2-1.7-2.7-3l-0.1-0.2c-0.3-0.5-0.6-0.9-0.9-1.4
			c-0.1-0.2-0.2-0.3-0.1-0.3s0.1-0.1,0.3-0.1c0.6,0,1.3,0.2,1.9,0.4l0,0l-0.5-0.3l0,0c-0.5-0.1-0.9-0.2-1.4-0.3
			c-0.4,0-0.8-0.2-1.1-0.4l-0.2-0.1c-0.2-0.2-0.4-0.3-0.6-0.5h-0.3v0.1c0.2,0.2,0.4,0.3,0.6,0.6l0.2,0.2c0.1,0.1,0.2,0.2,0.2,0.3
			s-0.1,0.1-0.3,0.1c-0.9,0-1.9,0.2-2.8,0.4c-0.4,0.1-0.9,0.1-1.4,0.1h0c-0.4,0-0.8,0-1.1,0h-0.7c-0.1,0-0.1,0-0.2-0.1
			c0-0.1,0-0.2,0.1-0.2c0.4-0.4,0.9-0.8,1.5-1.1V9.5l-0.5,0.1l0,0c-0.5,0.3-1,0.7-1.4,1c-0.3,0.3-0.7,0.4-1.1,0.5
			c-0.5,0.1-0.9,0.2-1.4,0.4l0,0l-0.3,0.3v0.1c0.5-0.2,1-0.3,1.5-0.4c0.2,0,0.3,0,0.3,0.1c0,0.1,0,0.2,0,0.2c-1,1.3-1.7,2.2-3.1,1.4
			l0,0l-0.1,0.1v0.1l0,0c0.9,1.2,0.2,2.1-0.8,3.5c-0.1,0.1-0.2,0.2-0.2,0.1s-0.1-0.1-0.1-0.4c0-0.6,0.1-1.2,0.2-1.8h-0.1l-0.2,0.4
			l0,0c-0.1,0.5-0.2,1-0.2,1.5V17c0,0.3-0.1,0.7-0.3,1c-0.3,0.6-0.5,1.2-0.6,1.9v0.7h0.1c0.1-0.7,0.3-1.4,0.6-2
			c0.1-0.2,0.2-0.2,0.2-0.2l0,0c0.1,0,0.1,0.1,0.1,0.4c0.1,1,0.4,2,0.8,2.9v0.1c0.1,0.1,0.1,0.3,0.2,0.4v1.1c0,0.4,0.1,0.8-0.1,0.9
			s-0.3,0-0.7-0.3c-0.3-0.2-0.6-0.5-0.9-0.9H9.7v0.1l0.1,0.2l0,0c0.3,0.3,0.5,0.6,0.8,0.9c0.6,0.5,1.1,1.2,1.4,2
			c0.3,0.9,0.7,1.7,1.2,2.4l0,0c0.2,0.1,0.4,0.3,0.6,0.4l0,0c-0.7-0.8-1.2-1.7-1.5-2.8c-0.2-0.5-0.2-0.7-0.1-0.8s0.5,0,1,0.2l0,0
			l0.4,0.1l0,0c0.3,0.3,0.6,0.6,0.9,0.9c1.1,1,2.3,1.8,3.6,2.3c0.8,0.4,1.2,0.6,1.2,0.8s-0.8,0.5-1.9,0.8l0,0l0.3,0.1l0,0
			c2.6-0.6,2.8-0.7,5.1-0.1l0,0l0.1-0.1l0.1,0l0,0c-0.8-0.1-1.5-0.4-1.5-0.6s0.1-0.2,1-0.2c1.3-0.1,2.6-0.4,3.9-0.9l0,0l0.3-0.3v0
			c-1.3,0.6-2.7,0.8-4.1,0.9h-0.1c-0.6,0-1,0-1.1-0.2s0.1-0.4,0.6-0.9c0.4-0.4,0.8-0.8,1.1-1.2l0.3-0.4c1.5-1.9,2.2-2.8,4.4-1.5
			l0.9,0.5l0.4,0.2l0,0v-0.1l0.1-0.1l0,0L29,25.7c-0.4-0.2-0.8-0.5-1.1-0.7c-0.9-0.6-1.3-1.1-1.4-1.6c-0.1-0.7,0.4-1.4,1-2.3
			l0.1-0.1c0.2-0.3,0.6-0.8,0.8-0.8l0,0c0.1,0,0.2,0.1,0.3,0.3c0.6,1.7,0.8,3.5,0.4,5.3l0,0l0.1-0.1c0-0.1,0.1-0.2,0.1-0.3l0,0
			c0.3-1.7,0.2-3.4-0.4-5c-0.2-0.8-0.2-1.6,0.1-2.4c0.1-0.2,0.1-0.5,0.2-0.7L29.4,17.3z"/>
		<path class="st0" d="M11.5,18.7l0.3-0.2l0.3-0.2c0.1-0.1,0.3-0.1,0.4-0.1c0.2,0,0.3,0,0.5,0c0.2,0,0.4,0,0.5,0.1
			c0.1,0.1,0.3,0.1,0.4,0.2c0.2,0.2,0.3,0.5,0.3,0.7v0.2h-0.7c-0.4,0-0.7,0-1.1,0.1c-0.3,0-0.6,0.2-0.9,0.3
			c-0.2,0.1-0.5,0.3-0.6,0.5c-0.1,0.3-0.2,0.5-0.2,0.8c0,0.2,0,0.5,0.1,0.7c0.1,0.2,0.2,0.4,0.4,0.5c0.2,0.1,0.4,0.2,0.6,0.3
			c0.2,0.1,0.4,0.1,0.7,0.1c0.3,0,0.7-0.1,1-0.2c0.3-0.2,0.6-0.4,0.8-0.7l0,0c0,0.3,0,0.5,0,0.8H15V19c0-0.2,0-0.4-0.1-0.6
			c-0.1-0.2-0.2-0.4-0.4-0.5c-0.2-0.2-0.4-0.3-0.7-0.4c-0.3-0.1-0.7-0.1-1-0.1c-0.4,0-0.7,0.1-1.1,0.2c-0.4,0.1-0.7,0.3-0.9,0.6
			L11.5,18.7z M14.2,20.1v0.3c0,0.2,0,0.4-0.1,0.5c-0.1,0.2-0.1,0.3-0.2,0.5c-0.1,0.1-0.3,0.3-0.4,0.4c-0.2,0.1-0.4,0.1-0.7,0.1
			c-0.3,0-0.6,0-0.8-0.2c-0.2-0.1-0.3-0.4-0.3-0.6c0-0.2,0.1-0.4,0.2-0.5c0.1-0.1,0.3-0.2,0.5-0.3c0.2-0.1,0.4-0.1,0.7-0.1h0.7
			L14.2,20.1z M20.9,18.1c-0.2-0.3-0.5-0.5-0.9-0.6c-0.3-0.1-0.7-0.2-1.1-0.2c-0.4,0-0.7,0.1-1.1,0.2c-0.6,0.3-1.1,0.8-1.4,1.4
			c-0.3,0.7-0.3,1.5,0,2.2c0.1,0.3,0.3,0.6,0.5,0.8c0.2,0.2,0.5,0.4,0.8,0.5c0.3,0.1,0.7,0.2,1.1,0.2c0.4,0,0.7-0.1,1.1-0.2
			c0.3-0.1,0.6-0.3,0.9-0.6l-0.7-0.7c-0.1,0.2-0.3,0.3-0.5,0.4c-0.2,0.1-0.5,0.2-0.7,0.1c-0.2,0-0.5,0-0.7-0.1
			c-0.2-0.1-0.4-0.2-0.5-0.4c-0.1-0.2-0.3-0.3-0.3-0.5c-0.1-0.2-0.1-0.4-0.1-0.7c0-0.2,0-0.5,0.1-0.7c0.1-0.2,0.2-0.4,0.3-0.6
			c0.1-0.2,0.3-0.3,0.5-0.4c0.2-0.1,0.5-0.1,0.7-0.1c0.2,0,0.5,0,0.7,0.1c0.2,0.1,0.4,0.3,0.6,0.4L20.9,18.1z M21.7,22.5h1v-2.6
			c0-0.3,0-0.5,0.1-0.7c0.1-0.2,0.2-0.4,0.3-0.5c0.1-0.1,0.3-0.2,0.4-0.3c0.2-0.1,0.3-0.1,0.5-0.1c0.2,0,0.4,0,0.6,0.1
			c0.1,0.1,0.3,0.2,0.3,0.3c0.1,0.2,0.1,0.3,0.1,0.5v3.3h1v-2.8c0-0.4,0.1-0.8,0.3-1.1c0.2-0.3,0.6-0.5,1-0.4c0.2,0,0.4,0,0.6,0.1
			c0.1,0.1,0.2,0.2,0.3,0.3c0.1,0.1,0.1,0.3,0.1,0.5c0,0.2,0,0.4,0,0.6v2.8h1v-3c0-0.3,0-0.6-0.1-0.8c0-0.3-0.1-0.5-0.3-0.7
			c-0.1-0.2-0.4-0.4-0.6-0.5c-0.3-0.1-0.7-0.2-1-0.2c-0.3,0-0.6,0.1-0.9,0.2c-0.3,0.2-0.5,0.4-0.7,0.7c-0.1-0.3-0.4-0.5-0.6-0.7
			c-0.3-0.2-0.7-0.3-1-0.2c-0.2,0-0.4,0-0.6,0.1c-0.2,0.1-0.3,0.1-0.5,0.2c-0.1,0.1-0.2,0.2-0.3,0.3c-0.1,0.1-0.1,0.2-0.2,0.3l0,0
			v-0.8h-0.9L21.7,22.5z"/>
		<path class="st0" d="M20,8.7C13.8,8.7,8.7,13.8,8.7,20c0,6.2,5.1,11.3,11.3,11.3S31.3,26.2,31.3,20C31.3,13.8,26.3,8.7,20,8.7
			L20,8.7z M20,31.5c-6.3,0-11.5-5.1-11.4-11.5S13.7,8.5,20,8.5c6.3,0,11.5,5.1,11.4,11.5C31.5,26.3,26.4,31.5,20,31.5L20,31.5z"/>
	</g>
</g>
</svg>
