<?xml version="1.0" encoding="utf-8"?>
<!-- Generator: Adobe Illustrator 16.0.0, SVG Export Plug-In . SVG Version: 6.00 Build 0)  -->
<!DOCTYPE svg PUBLIC "-//W3C//DTD SVG 1.1//EN" "http://www.w3.org/Graphics/SVG/1.1/DTD/svg11.dtd">
<svg version="1.1" id="Layer_1" xmlns="http://www.w3.org/2000/svg" xmlns:xlink="http://www.w3.org/1999/xlink" x="0px" y="0px"
	 width="539.648px" height="281.71px" viewBox="0 0 539.648 281.71" enable-background="new 0 0 539.648 281.71"
	 xml:space="preserve">
<g>
	<g>
		<path fill-rule="evenodd" clip-rule="evenodd" fill="#3BB2C1" d="M210.341,93.703c-0.005,0.003-0.008,0.007-0.013,0.01
			c0.004,10.203,0.01,26.224,0.013,27.43c0-9.662,0-18.264,0-26.864C210.345,94.086,210.339,93.895,210.341,93.703z"/>
		<path fill-rule="evenodd" clip-rule="evenodd" fill="#3BB2C1" d="M380.571,80.833c-0.025-7.327-1.173-14.571-3.717-21.435
			C364.846,27,339.487,10.522,307.497,2.96c-22.361-5.285-44.904-2.846-67.04,2.245c-19.601,4.508-37.426,12.689-51.036,28.246
			c7.281,8.431,15.419,24.157,19.018,38.455c16.907-16.8,37.022-27.131,60.794-30.165c12.632-1.612,25.012-0.776,36.881,4.041
			c17.405,7.063,26.514,20.416,27.875,38.868c0.654,8.874,0.112,17.834,0.112,27.437c-20.894,0-41.497,0.134-62.097-0.038
			c-20.648-0.172-41.247-0.295-61.664,9.094c0,0-0.265,0.032-2.302,1.051c-25.553,12.78-40.54,34.063-44.104,62.422
			c-0.492,19.854,0.283,39.576,11.608,56.878c14.582,22.278,37.236,31.359,62.103,35.713c30.409,5.322,61.095,5.582,91.771,2.582
			c17.516-1.713,34.95-4.152,51.26-11.442l0.104-86.696C380.692,148.044,380.688,114.439,380.571,80.833z M334.655,234.271
			c-6.208,2.025-12.823,2.46-19.315,2.865c-24.457,1.528-48.948,2.88-73.144-2.787c-15.677-3.672-28.668-16.638-29.621-29.536
			c-1.835-24.857,4.934-38.471,22.683-45.417c4.789-1.874,9.89-2.644,14.964-2.667c27.145-0.125,54.291-0.054,81.437-0.037
			c0.932,0.001,1.863,0.15,2.996,0.248C334.655,182.77,334.655,208.351,334.655,234.271z"/>
	</g>
	<path fill-rule="evenodd" clip-rule="evenodd" fill="#4E4948" d="M380.676,268.346l0.092-76.932
		c3.867,17.771,13.593,31.964,31.758,37.299c26.818,7.875,53.568,5.473,80.681-0.699c0-74.742,0-149.082,0-223.546
		c15.702,0,30.95,0,46.442,0c0,86.808,0,173.417,0,260.269c-12.295,5.626-25.556,8.071-38.885,9.832
		c-33.046,4.368-66.131,5.533-99.141-0.501C394.487,272.763,387.462,270.971,380.676,268.346z"/>
	<path fill-rule="evenodd" clip-rule="evenodd" fill="#4E4948" d="M210.341,121.143c0,0-0.265,0.032-2.302,1.051
		c-25.553,12.78-40.54,34.063-44.104,62.422l0,0c-0.008-25.625-0.006-51.25-0.027-76.875c-0.03-35.885-10.856-49.761-45.977-56.557
		c-22.946-4.44-46.029-3.311-68.802,2.275c-0.895,0.22-1.743,0.632-2.704,0.989c0,74.457,0,148.698,0,223.272
		c-15.516,0-30.846,0-46.424,0c0-86.743,0-173.346,0-260.196C14.907,11.331,30.542,8.41,46.375,6.667
		c33.278-3.665,66.479-3.917,99.403,3.454c16.723,3.744,31.689,10.702,43.643,23.331c9.692,11.222,20.904,35.37,20.904,51.87
		C210.325,85.321,210.337,119.363,210.341,121.143z"/>
</g>
<path fill-rule="evenodd" clip-rule="evenodd" fill="#4E4948" d="M588.325,212.321"/>
</svg>
