<?xml version="1.0" encoding="utf-8"?>
<!-- Generator: Adobe Illustrator 16.0.0, SVG Export Plug-In . SVG Version: 6.00 Build 0)  -->
<!DOCTYPE svg PUBLIC "-//W3C//DTD SVG 1.1//EN" "http://www.w3.org/Graphics/SVG/1.1/DTD/svg11.dtd">
<svg version="1.1" id="Camada_1" xmlns="http://www.w3.org/2000/svg" xmlns:xlink="http://www.w3.org/1999/xlink" x="0px" y="0px"
	 width="1411.665px" height="1411.717px" viewBox="0 0 1411.665 1411.717" enable-background="new 0 0 1411.665 1411.717"
	 xml:space="preserve">
<g>
	<path d="M787,4.679v1117.646H621.709L98.318,346.339C35.861,451.642,0,574.574,0,705.887c0,389.824,316.016,705.83,705.826,705.83
		c389.833,0,705.839-316.006,705.839-705.83C1411.665,343.513,1138.599,44.934,787,4.679z"/>
	<path d="M624.664,4.678C460.203,23.506,312.929,98.866,202.738,210.833l421.926,625.586V4.678z"/>
	<path fill="#FFFFFF" d="M787,1122.324V4.679l0,0C760.363,1.635,733.291,0,705.826,0c-27.453,0-54.526,1.635-81.162,4.679V4.678
		v831.742L202.738,210.833l0,0c-39.979,40.745-75.045,86.302-104.258,135.748l-0.162-0.241l523.391,775.985H787z"/>
</g>
<g>
	<path fill="#FFFFFF" d="M823.918,924.695h22.932c15.117,0,20.453,11.18,20.453,22.613c0,13.911-7.369,22.741-23.186,22.741h-20.199
		V924.695z M837.893,958.425h5.463c8.701,0,9.973-7.051,9.973-11.307c0-2.858-0.889-10.799-10.99-10.799h-4.445V958.425z"/>
	<path fill="#FFFFFF" d="M873.34,924.695h13.975v45.354H873.34V924.695z"/>
	<path fill="#FFFFFF" d="M927.715,965.413c-3.113,4.002-7.941,5.717-12.895,5.717c-13.404,0-21.662-10.418-21.662-23.313
		c0-17.278,12.133-24.202,22.359-24.202c11.563,0,18.867,6.288,20.9,16.96h-13.404c-0.508-3.303-3.303-5.653-6.605-5.653
		c-9.592,0-9.275,10.101-9.275,13.213c0,4.256,1.715,11.688,10.229,11.688c3.238,0,6.541-1.651,7.24-5.018h-6.162v-9.719h18.549
		v24.964h-8.828L927.715,965.413z"/>
	<path fill="#FFFFFF" d="M943.916,924.695h13.975v45.354h-13.975V924.695z"/>
	<path fill="#FFFFFF" d="M975.676,936.319h-12.703v-11.624h39.383v11.624h-12.703v33.73h-13.977V936.319z"/>
	<path fill="#FFFFFF" d="M1015.443,924.695h13.656l16.516,45.354h-14.482l-1.906-6.479h-14.42l-2.031,6.479h-14.039
		L1015.443,924.695z M1026.432,953.852l-4.064-13.975h-0.127l-4.383,13.975H1026.432z"/>
	<path fill="#FFFFFF" d="M1048.729,924.695h13.975v33.729h20.074v11.625h-34.049V924.695z"/>
</g>
<g>
	<path fill="#FFFFFF" d="M823.918,1000.925h35.064v11.624h-21.09v5.653h18.104v10.799h-18.104v17.278h-13.975V1000.925z"/>
	<path fill="#FFFFFF" d="M873.084,1000.925h13.658l16.516,45.354h-14.482l-1.906-6.479h-14.42l-2.033,6.479h-14.037
		L873.084,1000.925z M884.074,1030.081l-4.066-13.975h-0.127l-4.383,13.975H884.074z"/>
	<path fill="#FFFFFF" d="M906.371,1000.925h24.836c11.943,0,14.484,6.732,14.484,11.37c0,4.573-2.225,7.051-5.59,8.893
		c4.064,1.398,7.875,4.638,7.875,11.308c0,9.084-7.875,13.784-15.879,13.784h-25.727V1000.925z M920.346,1018.584h7.367
		c2.924,0,4.766-0.826,4.766-3.748c0-2.287-1.906-3.112-4.766-3.112h-7.367V1018.584z M920.346,1035.48h8.193
		c2.922,0,5.463-0.826,5.463-4.319c0-2.668-1.588-4.129-4.891-4.129h-8.766V1035.48z"/>
	<path fill="#FFFFFF" d="M953.443,1000.925h26.615c7.939,0,14.801,4.383,14.801,12.958c0,4.701-2.16,9.655-6.797,11.37
		c3.811,1.462,6.162,5.654,6.67,11.308c0.189,2.223,0.254,7.622,1.523,9.719h-13.975c-0.699-2.287-0.953-4.637-1.143-6.987
		c-0.381-4.319-0.762-8.83-6.289-8.83h-7.432v15.817h-13.975V1000.925z M967.418,1020.743h7.305c2.604,0,6.162-0.444,6.162-4.51
		c0-2.858-1.588-4.51-6.924-4.51h-6.543V1020.743z"/>
	<path fill="#FFFFFF" d="M1000.514,1000.925h13.975v45.354h-13.975V1000.925z"/>
	<path fill="#FFFFFF" d="M1050.252,1017.821c-0.254-1.651-1.523-6.67-7.305-6.67c-6.543,0-8.639,6.353-8.639,12.45
		c0,6.099,2.096,12.45,8.639,12.45c4.701,0,6.543-3.303,7.369-7.559h13.721c0,9.147-7.434,18.866-20.709,18.866
		c-14.674,0-22.994-10.354-22.994-23.758c0-14.292,9.02-23.757,22.994-23.757c12.451,0.063,19.311,6.606,20.518,17.977H1050.252z"/>
	<path fill="#FFFFFF" d="M1082.459,1000.925h13.658l16.516,45.354h-14.482l-1.906-6.479h-14.42l-2.033,6.479h-14.037
		L1082.459,1000.925z M1093.449,1030.081l-4.066-13.975h-0.127l-4.383,13.975H1093.449z"/>
	<path fill="#FFFFFF" d="M1122.098,1012.549h-12.705v-11.624h39.385v11.624h-12.705v33.73h-13.975V1012.549z"/>
	<path fill="#FFFFFF" d="M1153.924,1000.925h13.975v45.354h-13.975V1000.925z"/>
	<path fill="#FFFFFF" d="M1196.738,999.845c13.785,0,22.996,9.909,22.996,23.757s-9.211,23.758-22.996,23.758
		s-22.994-9.91-22.994-23.758S1182.953,999.845,1196.738,999.845z M1196.738,1036.052c3.557,0,9.02-2.35,9.02-12.45
		c0-10.1-5.463-12.45-9.02-12.45s-9.02,2.351-9.02,12.45C1187.719,1033.702,1193.182,1036.052,1196.738,1036.052z"/>
	<path fill="#FFFFFF" d="M1225.705,1000.925h14.293l13.213,24.265h0.127v-24.265h13.213v45.354h-13.594l-13.912-24.773h-0.127
		v24.773h-13.213V1000.925z"/>
</g>
<g>
	<path fill="#FFFFFF" d="M823.918,1077.154h13.975v45.354h-13.975V1077.154z"/>
	<path fill="#FFFFFF" d="M856.188,1107.264c0,1.144,0.189,2.159,0.508,2.985c1.016,2.731,4.064,3.303,6.67,3.303
		c2.287,0,5.779-0.762,5.779-4.129c0-2.35-1.969-2.985-9.781-5.209c-7.178-2.032-15.373-4.001-15.373-13.148
		c0-10.481,8.957-14.991,18.295-14.991c9.846,0,18.549,3.747,18.93,14.801h-13.213c0.254-1.716-0.508-2.858-1.652-3.621
		c-1.143-0.826-2.73-1.144-4.129-1.144c-1.904,0-5.018,0.509-5.018,3.049c0.254,3.24,6.734,3.938,13.148,5.718
		c6.416,1.778,12.77,4.764,12.77,13.085c0,11.815-10.863,15.627-20.963,15.627c-5.146,0-19.818-1.843-19.945-16.325H856.188z"/>
	<path fill="#FFFFFF" d="M916.025,1094.051c-0.254-1.651-1.523-6.67-7.305-6.67c-6.543,0-8.639,6.353-8.639,12.45
		c0,6.099,2.096,12.45,8.639,12.45c4.701,0,6.543-3.303,7.369-7.559h13.721c0,9.147-7.434,18.866-20.709,18.866
		c-14.674,0-22.994-10.354-22.994-23.758c0-14.292,9.02-23.757,22.994-23.757c12.451,0.063,19.311,6.606,20.518,17.977H916.025z"/>
	<path fill="#FFFFFF" d="M946.264,1088.778h-12.705v-11.624h39.385v11.624h-12.705v33.73h-13.975V1088.778z"/>
	<path fill="#FFFFFF" d="M978.09,1077.154h37.541v11.624h-23.566v5.653h21.408v10.799h-21.408v5.653h24.266v11.625h-38.24V1077.154z
		"/>
	<path fill="#FFFFFF" d="M1022.176,1100.34h19.883v10.417h-19.883V1100.34z"/>
	<path fill="#FFFFFF" d="M1048.666,1077.154h13.975v45.354h-13.975V1077.154z"/>
	<path fill="#FFFFFF" d="M1110.98,1104.977c0,12.577-6.797,18.612-20.645,18.612s-20.707-6.035-20.707-18.612v-27.822h13.975v24.71
		c0,4.637,0,10.417,6.797,10.417c6.605,0,6.605-5.78,6.605-10.417v-24.71h13.975V1104.977z"/>
	<path fill="#FFFFFF" d="M1118.033,1077.154h13.975v33.729h20.074v11.625h-34.049V1077.154z"/>
</g>
<g>
	<path fill="#FFFFFF" d="M822.363,504.887H954.99v31.919h-80.896v19.995h74.477v31.918h-74.477v47.145h-51.73V504.887z"/>
	<path fill="#FFFFFF" d="M992.047,504.887h63.471l55.766,130.977h-55.031l-5.504-15.042h-53.932l-5.504,15.042h-55.031
		L992.047,504.887z M1023.965,544.511h-0.365l-15.41,44.393h31.186L1023.965,544.511z"/>
	<path fill="#FFFFFF" d="M1104.498,504.887h117.77c26.781,0,38.705,11.74,38.705,32.653c0,11.557-5.686,21.646-15.592,25.498v0.367
		c16.877,4.403,22.379,20.179,22.379,29.901c0,25.682-12.84,42.559-51.18,42.559h-112.082V504.887z M1155.127,553.683h39.074
		c10.455,0,12.84-3.485,12.84-8.622c0-4.77-2.385-8.255-12.84-8.255h-39.074V553.683z M1155.127,603.945h44.209
		c10.273,0,13.393-4.402,13.393-10.272c0-5.687-3.119-10.273-13.393-10.273h-44.209V603.945z"/>
</g>
<g>
	<path fill="#FFFFFF" d="M821.363,717.376h51.73v95.756h80.164v35.221H821.363V717.376z"/>
	<path fill="#FFFFFF" d="M1004.439,717.376h63.471l55.766,130.977h-55.033l-5.502-15.042h-53.932l-5.504,15.042h-55.033
		L1004.439,717.376z M1036.357,756.999h-0.367l-15.408,44.393h31.184L1036.357,756.999z"/>
	<path fill="#FFFFFF" d="M1130.281,717.376h117.77c26.781,0,38.705,11.74,38.705,32.652c0,11.557-5.686,21.646-15.592,25.498v0.367
		c16.877,4.402,22.379,20.179,22.379,29.9c0,25.682-12.84,42.559-51.18,42.559h-112.082V717.376z M1180.91,766.171h39.074
		c10.455,0,12.84-3.485,12.84-8.622c0-4.77-2.385-8.255-12.84-8.255h-39.074V766.171z M1180.91,816.434h44.209
		c10.273,0,13.393-4.402,13.393-10.272c0-5.687-3.119-10.272-13.393-10.272h-44.209V816.434z"/>
</g>
</svg>
